<svg width="913" height="200" viewBox="0 0 913 200" fill="none" xmlns="http://www.w3.org/2000/svg">
<path d="M22.6 118.2C24.2 125.8 27.8667 131.667 33.6 135.8C39.3333 139.8 46.3333 141.8 54.6 141.8C66.0667 141.8 74.6667 137.667 80.4 129.4L98.2 139.8C88.3333 154.333 73.7333 161.6 54.4 161.6C38.1333 161.6 25 156.667 15 146.8C5 136.8 0 124.2 0 109C0 94.0666 4.93333 81.5999 14.8 71.5999C24.6667 61.4666 37.3333 56.3999 52.8 56.3999C67.4667 56.3999 79.4667 61.5333 88.8 71.7999C98.2667 82.0666 103 94.5332 103 109.2C103 111.467 102.733 114.467 102.2 118.2H22.6ZM22.4 100.6H81.2C79.7333 92.4666 76.3333 86.3333 71 82.1999C65.8 78.0666 59.6667 75.9999 52.6 75.9999C44.6 75.9999 37.9333 78.1999 32.6 82.5999C27.2667 86.9999 23.8667 92.9999 22.4 100.6Z" fill="url(#paint0_linear)"/>
<path d="M168.62 161.6C153.554 161.6 140.954 156.533 130.82 146.4C120.82 136.267 115.82 123.8 115.82 109C115.82 94.0666 120.82 81.5999 130.82 71.5999C140.954 61.4666 153.554 56.3999 168.62 56.3999C178.354 56.3999 187.22 58.7333 195.22 63.3999C203.22 68.0666 209.22 74.3333 213.22 82.1999L194.62 92.9999C192.354 88.1999 188.887 84.4666 184.22 81.7999C179.687 78.9999 174.42 77.5999 168.42 77.5999C159.62 77.5999 152.22 80.5999 146.22 86.5999C140.354 92.5999 137.42 100.067 137.42 109C137.42 117.933 140.354 125.4 146.22 131.4C152.22 137.4 159.62 140.4 168.42 140.4C174.287 140.4 179.554 139 184.22 136.2C189.02 133.4 192.62 129.667 195.02 125L213.62 135.6C209.354 143.6 203.22 149.933 195.22 154.6C187.22 159.267 178.354 161.6 168.62 161.6Z" fill="url(#paint1_linear)"/>
<path d="M274.87 161.6C260.204 161.6 247.737 156.533 237.47 146.4C227.204 136.267 222.07 123.8 222.07 109C222.07 94.1999 227.204 81.7333 237.47 71.5999C247.737 61.4666 260.204 56.3999 274.87 56.3999C289.67 56.3999 302.137 61.4666 312.27 71.5999C322.537 81.7333 327.67 94.1999 327.67 109C327.67 123.8 322.537 136.267 312.27 146.4C302.137 156.533 289.67 161.6 274.87 161.6ZM252.67 131.6C258.67 137.6 266.07 140.6 274.87 140.6C283.67 140.6 291.07 137.6 297.07 131.6C303.07 125.6 306.07 118.067 306.07 109C306.07 99.9333 303.07 92.3999 297.07 86.3999C291.07 80.3999 283.67 77.3999 274.87 77.3999C266.07 77.3999 258.67 80.3999 252.67 86.3999C246.67 92.3999 243.67 99.9333 243.67 109C243.67 118.067 246.67 125.6 252.67 131.6Z" fill="url(#paint2_linear)"/>
<path d="M362.794 157C359.86 159.933 356.327 161.4 352.194 161.4C348.06 161.4 344.527 159.933 341.594 157C338.66 154.067 337.194 150.533 337.194 146.4C337.194 142.267 338.594 138.733 341.394 135.8C344.327 132.867 347.927 131.4 352.194 131.4C356.327 131.4 359.86 132.867 362.794 135.8C365.727 138.733 367.194 142.267 367.194 146.4C367.194 150.533 365.727 154.067 362.794 157Z" fill="url(#paint3_linear)"/>
<path d="M442.57 37.1999C426.837 35.7333 418.97 42.3333 418.97 56.9999V58.9999H442.57V79.7999H418.97V159H397.37V79.7999H382.17V58.9999H397.37V56.9999C397.37 43.2666 401.17 32.8666 408.77 25.7999C416.504 18.5999 427.77 15.4666 442.57 16.3999V37.1999Z" fill="url(#paint4_linear)"/>
<path d="M476.809 75.7999C482.276 63.3999 492.543 57.1999 507.609 57.1999V80.5999C499.343 80.0666 492.143 82.0666 486.009 86.5999C479.876 90.9999 476.809 98.3333 476.809 108.6V159H455.209V58.9999H476.809V75.7999Z" fill="url(#paint5_linear)"/>
<path d="M523.569 159V58.9999H545.169V159H523.569Z" fill="url(#paint6_linear)"/>
<path d="M649.448 18.9999H671.048V159H649.448V144.6C641.315 155.933 629.648 161.6 614.448 161.6C600.715 161.6 588.982 156.533 579.248 146.4C569.515 136.133 564.648 123.667 564.648 109C564.648 94.1999 569.515 81.7333 579.248 71.5999C588.982 61.4666 600.715 56.3999 614.448 56.3999C629.648 56.3999 641.315 61.9999 649.448 73.1999V18.9999ZM595.248 132C601.248 138 608.782 141 617.848 141C626.915 141 634.448 138 640.448 132C646.448 125.867 649.448 118.2 649.448 109C649.448 99.7999 646.448 92.1999 640.448 86.1999C634.448 80.0666 626.915 76.9999 617.848 76.9999C608.782 76.9999 601.248 80.0666 595.248 86.1999C589.248 92.1999 586.248 99.7999 586.248 109C586.248 118.2 589.248 125.867 595.248 132Z" fill="url(#paint7_linear)"/>
<path d="M775.425 58.9999H797.025V159H775.425V144.6C767.292 155.933 755.625 161.6 740.425 161.6C726.692 161.6 714.958 156.533 705.225 146.4C695.492 136.133 690.625 123.667 690.625 109C690.625 94.1999 695.492 81.7333 705.225 71.5999C714.958 61.4666 726.692 56.3999 740.425 56.3999C755.625 56.3999 767.292 61.9999 775.425 73.1999V58.9999ZM721.225 132C727.225 138 734.758 141 743.825 141C752.892 141 760.425 138 766.425 132C772.425 125.867 775.425 118.2 775.425 109C775.425 99.7999 772.425 92.1999 766.425 86.1999C760.425 80.0666 752.892 76.9999 743.825 76.9999C734.758 76.9999 727.225 80.0666 721.225 86.1999C715.225 92.1999 712.225 99.7999 712.225 109C712.225 118.2 715.225 125.867 721.225 132Z" fill="url(#paint8_linear)"/>
<path d="M889.602 58.9999H912.602L874.202 162.2C864.602 188.067 848.335 200.333 825.402 199V178.8C832.202 179.2 837.668 177.733 841.802 174.4C845.935 171.2 849.335 166.133 852.002 159.2L853.002 157.2L810.602 58.9999H834.202L864.002 131.6L889.602 58.9999Z" fill="url(#paint9_linear)"/>
<path d="M515 42.6946L518.639 33.2069C525.674 14.8672 546.243 5.70242 564.583 12.7368L560.944 22.2245C553.91 40.5642 533.34 49.729 515 42.6946Z" fill="#92CF28"/>
<defs>
<linearGradient id="paint0_linear" x1="453.5" y1="-29" x2="453.5" y2="210" gradientUnits="userSpaceOnUse">
<stop stop-color="#ABF02A"/>
<stop offset="1" stop-color="#6A9923"/>
</linearGradient>
<linearGradient id="paint1_linear" x1="453.5" y1="-29" x2="453.5" y2="210" gradientUnits="userSpaceOnUse">
<stop stop-color="#ABF02A"/>
<stop offset="1" stop-color="#6A9923"/>
</linearGradient>
<linearGradient id="paint2_linear" x1="453.5" y1="-29" x2="453.5" y2="210" gradientUnits="userSpaceOnUse">
<stop stop-color="#ABF02A"/>
<stop offset="1" stop-color="#6A9923"/>
</linearGradient>
<linearGradient id="paint3_linear" x1="453.5" y1="-29" x2="453.5" y2="210" gradientUnits="userSpaceOnUse">
<stop stop-color="#ABF02A"/>
<stop offset="1" stop-color="#6A9923"/>
</linearGradient>
<linearGradient id="paint4_linear" x1="453.5" y1="-29" x2="453.5" y2="210" gradientUnits="userSpaceOnUse">
<stop stop-color="#ABF02A"/>
<stop offset="1" stop-color="#6A9923"/>
</linearGradient>
<linearGradient id="paint5_linear" x1="453.5" y1="-29" x2="453.5" y2="210" gradientUnits="userSpaceOnUse">
<stop stop-color="#ABF02A"/>
<stop offset="1" stop-color="#6A9923"/>
</linearGradient>
<linearGradient id="paint6_linear" x1="453.5" y1="-29" x2="453.5" y2="210" gradientUnits="userSpaceOnUse">
<stop stop-color="#ABF02A"/>
<stop offset="1" stop-color="#6A9923"/>
</linearGradient>
<linearGradient id="paint7_linear" x1="453.5" y1="-29" x2="453.5" y2="210" gradientUnits="userSpaceOnUse">
<stop stop-color="#ABF02A"/>
<stop offset="1" stop-color="#6A9923"/>
</linearGradient>
<linearGradient id="paint8_linear" x1="453.5" y1="-29" x2="453.5" y2="210" gradientUnits="userSpaceOnUse">
<stop stop-color="#ABF02A"/>
<stop offset="1" stop-color="#6A9923"/>
</linearGradient>
<linearGradient id="paint9_linear" x1="453.5" y1="-29" x2="453.5" y2="210" gradientUnits="userSpaceOnUse">
<stop stop-color="#ABF02A"/>
<stop offset="1" stop-color="#6A9923"/>
</linearGradient>
</defs>
</svg>
