<svg width="913" height="200" viewBox="0 0 913 200" fill="none" xmlns="http://www.w3.org/2000/svg">
<path d="M22.6 118.961C24.2 126.561 27.8667 132.427 33.6 136.561C39.3333 140.561 46.3333 142.561 54.6 142.561C66.0667 142.561 74.6667 138.427 80.4 130.161L98.2 140.561C88.3333 155.094 73.7333 162.361 54.4 162.361C38.1333 162.361 25 157.427 15 147.561C5 137.561 0 124.961 0 109.761C0 94.8273 4.93333 82.3607 14.8 72.3607C24.6667 62.2273 37.3333 57.1607 52.8 57.1607C67.4667 57.1607 79.4667 62.294 88.8 72.5607C98.2667 82.8273 103 95.294 103 109.961C103 112.227 102.733 115.227 102.2 118.961H22.6ZM22.4 101.361H81.2C79.7333 93.2273 76.3333 87.094 71 82.9607C65.8 78.8273 59.6667 76.7607 52.6 76.7607C44.6 76.7607 37.9333 78.9607 32.6 83.3607C27.2667 87.7607 23.8667 93.7607 22.4 101.361Z" fill="white"/>
<path d="M168.62 162.361C153.554 162.361 140.954 157.294 130.82 147.161C120.82 137.027 115.82 124.561 115.82 109.761C115.82 94.8273 120.82 82.3607 130.82 72.3607C140.954 62.2273 153.554 57.1607 168.62 57.1607C178.354 57.1607 187.22 59.494 195.22 64.1607C203.22 68.8273 209.22 75.094 213.22 82.9607L194.62 93.7607C192.354 88.9607 188.887 85.2273 184.22 82.5607C179.687 79.7607 174.42 78.3607 168.42 78.3607C159.62 78.3607 152.22 81.3607 146.22 87.3607C140.354 93.3607 137.42 100.827 137.42 109.761C137.42 118.694 140.354 126.161 146.22 132.161C152.22 138.161 159.62 141.161 168.42 141.161C174.287 141.161 179.554 139.761 184.22 136.961C189.02 134.161 192.62 130.427 195.02 125.761L213.62 136.361C209.354 144.361 203.22 150.694 195.22 155.361C187.22 160.027 178.354 162.361 168.62 162.361Z" fill="white"/>
<path d="M274.87 162.361C260.204 162.361 247.737 157.294 237.47 147.161C227.204 137.027 222.07 124.561 222.07 109.761C222.07 94.9607 227.204 82.494 237.47 72.3607C247.737 62.2273 260.204 57.1607 274.87 57.1607C289.67 57.1607 302.137 62.2273 312.27 72.3607C322.537 82.494 327.67 94.9607 327.67 109.761C327.67 124.561 322.537 137.027 312.27 147.161C302.137 157.294 289.67 162.361 274.87 162.361ZM252.67 132.361C258.67 138.361 266.07 141.361 274.87 141.361C283.67 141.361 291.07 138.361 297.07 132.361C303.07 126.361 306.07 118.827 306.07 109.761C306.07 100.694 303.07 93.1607 297.07 87.1607C291.07 81.1607 283.67 78.1607 274.87 78.1607C266.07 78.1607 258.67 81.1607 252.67 87.1607C246.67 93.1607 243.67 100.694 243.67 109.761C243.67 118.827 246.67 126.361 252.67 132.361Z" fill="white"/>
<path d="M362.794 157.761C359.86 160.694 356.327 162.161 352.194 162.161C348.06 162.161 344.527 160.694 341.594 157.761C338.66 154.827 337.194 151.294 337.194 147.161C337.194 143.027 338.594 139.494 341.394 136.561C344.327 133.627 347.927 132.161 352.194 132.161C356.327 132.161 359.86 133.627 362.794 136.561C365.727 139.494 367.194 143.027 367.194 147.161C367.194 151.294 365.727 154.827 362.794 157.761Z" fill="white"/>
<path d="M442.57 37.9607C426.837 36.494 418.97 43.094 418.97 57.7607V59.7607H442.57V80.5607H418.97V159.761H397.37V80.5607H382.17V59.7607H397.37V57.7607C397.37 44.0273 401.17 33.6273 408.77 26.5607C416.504 19.3607 427.77 16.2273 442.57 17.1607V37.9607Z" fill="white"/>
<path d="M476.809 76.5607C482.276 64.1607 492.543 57.9607 507.609 57.9607V81.3607C499.343 80.8273 492.143 82.8273 486.009 87.3607C479.876 91.7607 476.809 99.094 476.809 109.361V159.761H455.209V59.7607H476.809V76.5607Z" fill="white"/>
<path d="M523.569 159.761V59.7607H545.169V159.761H523.569Z" fill="white"/>
<path d="M649.448 19.7607H671.048V159.761H649.448V145.361C641.315 156.694 629.648 162.361 614.448 162.361C600.715 162.361 588.982 157.294 579.248 147.161C569.515 136.894 564.648 124.427 564.648 109.761C564.648 94.9607 569.515 82.494 579.248 72.3607C588.982 62.2273 600.715 57.1607 614.448 57.1607C629.648 57.1607 641.315 62.7607 649.448 73.9607V19.7607ZM595.248 132.761C601.248 138.761 608.782 141.761 617.848 141.761C626.915 141.761 634.448 138.761 640.448 132.761C646.448 126.627 649.448 118.961 649.448 109.761C649.448 100.561 646.448 92.9607 640.448 86.9607C634.448 80.8273 626.915 77.7607 617.848 77.7607C608.782 77.7607 601.248 80.8273 595.248 86.9607C589.248 92.9607 586.248 100.561 586.248 109.761C586.248 118.961 589.248 126.627 595.248 132.761Z" fill="white"/>
<path d="M775.425 59.7607H797.025V159.761H775.425V145.361C767.292 156.694 755.625 162.361 740.425 162.361C726.692 162.361 714.958 157.294 705.225 147.161C695.492 136.894 690.625 124.427 690.625 109.761C690.625 94.9607 695.492 82.494 705.225 72.3607C714.958 62.2273 726.692 57.1607 740.425 57.1607C755.625 57.1607 767.292 62.7607 775.425 73.9607V59.7607ZM721.225 132.761C727.225 138.761 734.758 141.761 743.825 141.761C752.892 141.761 760.425 138.761 766.425 132.761C772.425 126.627 775.425 118.961 775.425 109.761C775.425 100.561 772.425 92.9607 766.425 86.9607C760.425 80.8273 752.892 77.7607 743.825 77.7607C734.758 77.7607 727.225 80.8273 721.225 86.9607C715.225 92.9607 712.225 100.561 712.225 109.761C712.225 118.961 715.225 126.627 721.225 132.761Z" fill="white"/>
<path d="M889.602 59.7607H912.602L874.202 162.961C864.602 188.827 848.335 201.094 825.402 199.761V179.561C832.202 179.961 837.668 178.494 841.802 175.161C845.935 171.961 849.335 166.894 852.002 159.961L853.002 157.961L810.602 59.7607H834.202L864.002 132.361L889.602 59.7607Z" fill="white"/>
<path d="M515 43.4553L518.639 33.9676C525.674 15.6279 546.243 6.46316 564.583 13.4976L560.944 22.9853C553.91 41.325 533.34 50.4897 515 43.4553Z" fill="white"/>
</svg>
